<svg width="32" height="32" viewBox="0 0 32 32" fill="none" xmlns="http://www.w3.org/2000/svg">
<path d="M11.0251 31.8704C12.2429 31.8704 13.2302 30.8832 13.2302 29.6654C13.2302 28.4476 12.2429 27.4603 11.0251 27.4603C9.80734 27.4603 8.82011 28.4476 8.82011 29.6654C8.82011 30.8832 9.80734 31.8704 11.0251 31.8704Z" fill="#33408C"/>
<path d="M26.4603 31.8704C27.6781 31.8704 28.6654 30.8832 28.6654 29.6654C28.6654 28.4476 27.6781 27.4603 26.4603 27.4603C25.2425 27.4603 24.2553 28.4476 24.2553 29.6654C24.2553 30.8832 25.2425 31.8704 26.4603 31.8704Z" fill="#33408C"/>
<path d="M30.8704 6.5128H6.41663L5.51257 1.88224C5.46103 1.62946 5.32247 1.40276 5.12102 1.2416C4.91957 1.08044 4.66799 0.995023 4.41006 1.00022H0V3.20525H3.506L7.7176 24.3735C7.76914 24.6263 7.9077 24.853 8.10915 25.0142C8.3106 25.1753 8.56219 25.2607 8.82011 25.2555H28.6654V23.0505H9.72418L8.82011 18.6405H28.6654C28.9202 18.6467 29.1694 18.5644 29.3704 18.4076C29.5714 18.2508 29.7119 18.0292 29.7679 17.7805L31.9729 7.85786C32.0099 7.69428 32.009 7.52442 31.9704 7.36122C31.9318 7.19801 31.8565 7.04577 31.7502 6.91606C31.6438 6.78636 31.5093 6.68262 31.3569 6.61274C31.2044 6.54286 31.0381 6.50868 30.8704 6.5128ZM27.7834 16.4354H8.40116L6.85764 8.71782H29.4923L27.7834 16.4354Z" fill="#33408C"/>
</svg>
