<svg width="32" height="32" viewBox="0 0 32 32" fill="none" xmlns="http://www.w3.org/2000/svg">
<path d="M20.2667 31.9333H17.0667C16.501 31.9328 15.9588 31.7078 15.5588 31.3079C15.1588 30.9079 14.9339 30.3656 14.9333 29.8V24.4667H17.0667V29.8H20.2667V24.4667H22.4V20.2C22.3997 19.9172 22.2872 19.646 22.0873 19.4461C21.8873 19.2461 21.6161 19.1336 21.3333 19.1333H12.032L9.89867 12.7333H3.2C2.91719 12.7336 2.64604 12.8461 2.44606 13.0461C2.24609 13.246 2.13362 13.5172 2.13333 13.8V20.2H4.26667V29.8H8.53333V22.3333H10.6667V29.8C10.6661 30.3656 10.4412 30.9079 10.0412 31.3079C9.64125 31.7078 9.09896 31.9328 8.53333 31.9333H4.26667C3.70105 31.9328 3.15875 31.7078 2.7588 31.3079C2.35884 30.9079 2.1339 30.3656 2.13333 29.8V22.3333C1.56771 22.3328 1.02542 22.1078 0.625463 21.7079C0.225507 21.3079 0.000564775 20.7656 0 20.2V13.8C0.000847163 12.9516 0.338261 12.1381 0.938194 11.5382C1.53813 10.9383 2.35157 10.6008 3.2 10.6H9.89867C10.3464 10.5997 10.7828 10.7404 11.146 11.0022C11.5092 11.2639 11.7807 11.6334 11.9221 12.0581L13.568 17H21.3333C22.1818 17.0008 22.9952 17.3383 23.5951 17.9382C24.1951 18.5381 24.5325 19.3516 24.5333 20.2V24.4667C24.5328 25.0323 24.3078 25.5746 23.9079 25.9745C23.5079 26.3745 22.9656 26.5994 22.4 26.6V29.8C22.3994 30.3656 22.1745 30.9079 21.7745 31.3079C21.3746 31.7078 20.8323 31.9328 20.2667 31.9333ZM28.8 31.9333H26.6667V20.2H29.8667V13.8C29.8664 13.5172 29.7539 13.246 29.5539 13.0461C29.354 12.8461 29.0828 12.7336 28.8 12.7333H24.5333V10.6H28.8C29.6484 10.6008 30.4619 10.9383 31.0618 11.5382C31.6617 12.1381 31.9992 12.9516 32 13.8V20.2C31.9994 20.7656 31.7745 21.3079 31.3745 21.7079C30.9746 22.1078 30.4323 22.3328 29.8667 22.3333H28.8V31.9333ZM6.4 9.53333C5.55613 9.53333 4.73122 9.2831 4.02957 8.81427C3.32792 8.34544 2.78105 7.67908 2.45811 6.89945C2.13518 6.11982 2.05069 5.26194 2.21532 4.43428C2.37995 3.60663 2.78631 2.84638 3.38301 2.24968C3.97972 1.65298 4.73996 1.24661 5.56762 1.08198C6.39527 0.917354 7.25315 1.00185 8.03278 1.32478C8.81241 1.64772 9.47878 2.19459 9.9476 2.89624C10.4164 3.59789 10.6667 4.4228 10.6667 5.26667C10.6653 6.39783 10.2153 7.48225 9.41543 8.2821C8.61558 9.08195 7.53116 9.53192 6.4 9.53333ZM6.4 3.13334C5.97807 3.13334 5.56561 3.25845 5.21478 3.49287C4.86396 3.72728 4.59052 4.06046 4.42906 4.45028C4.26759 4.84009 4.22534 5.26903 4.30766 5.68286C4.38997 6.09669 4.59315 6.47681 4.89151 6.77516C5.18986 7.07351 5.56998 7.2767 5.98381 7.35901C6.39763 7.44133 6.82658 7.39908 7.21639 7.23761C7.60621 7.07614 7.93939 6.80271 8.1738 6.45188C8.40822 6.10106 8.53333 5.6886 8.53333 5.26667C8.53277 4.70105 8.30783 4.15875 7.90787 3.7588C7.50792 3.35884 6.96562 3.1339 6.4 3.13334ZM25.6 9.53333C24.7561 9.53333 23.9312 9.2831 23.2296 8.81427C22.5279 8.34544 21.981 7.67908 21.6581 6.89945C21.3352 6.11982 21.2507 5.26194 21.4153 4.43428C21.5799 3.60663 21.9863 2.84638 22.583 2.24968C23.1797 1.65298 23.94 1.24661 24.7676 1.08198C25.5953 0.917354 26.4532 1.00185 27.2328 1.32478C28.0124 1.64772 28.6788 2.19459 29.1476 2.89624C29.6164 3.59789 29.8667 4.4228 29.8667 5.26667C29.8653 6.39783 29.4153 7.48225 28.6154 8.2821C27.8156 9.08195 26.7312 9.53192 25.6 9.53333ZM25.6 3.13334C25.1781 3.13334 24.7656 3.25845 24.4148 3.49287C24.064 3.72728 23.7905 4.06046 23.6291 4.45028C23.4676 4.84009 23.4253 5.26903 23.5077 5.68286C23.59 6.09669 23.7932 6.47681 24.0915 6.77516C24.3899 7.07351 24.77 7.2767 25.1838 7.35901C25.5976 7.44133 26.0266 7.39908 26.4164 7.23761C26.8062 7.07614 27.1394 6.80271 27.3738 6.45188C27.6082 6.10106 27.7333 5.6886 27.7333 5.26667C27.7328 4.70105 27.5078 4.15875 27.1079 3.7588C26.7079 3.35884 26.1656 3.1339 25.6 3.13334Z" fill="#33408C"/>
<path d="M18.6667 15.9333C17.9283 15.9333 17.2065 15.7144 16.5925 15.3042C15.9786 14.8939 15.5001 14.3109 15.2175 13.6287C14.9349 12.9465 14.861 12.1959 15.0051 11.4717C15.1491 10.7475 15.5047 10.0823 16.0268 9.56014C16.5489 9.03802 17.2141 8.68245 17.9383 8.5384C18.6625 8.39435 19.4132 8.46828 20.0954 8.75085C20.7775 9.03342 21.3606 9.51193 21.7708 10.1259C22.181 10.7398 22.4 11.4616 22.4 12.2C22.3989 13.1898 22.0052 14.1387 21.3053 14.8386C20.6054 15.5385 19.6565 15.9322 18.6667 15.9333ZM18.6667 10.6C18.3502 10.6 18.0409 10.6938 17.7778 10.8696C17.5146 11.0455 17.3096 11.2953 17.1885 11.5877C17.0674 11.8801 17.0357 12.2018 17.0974 12.5121C17.1591 12.8225 17.3115 13.1076 17.5353 13.3314C17.7591 13.5551 18.0442 13.7075 18.3545 13.7693C18.6649 13.831 18.9866 13.7993 19.279 13.6782C19.5713 13.5571 19.8212 13.352 19.997 13.0889C20.1728 12.8258 20.2667 12.5165 20.2667 12.2C20.2661 11.7758 20.0974 11.3692 19.7974 11.0693C19.4975 10.7693 19.0908 10.6006 18.6667 10.6Z" fill="#33408C"/>
</svg>
