<svg width="32" height="32" viewBox="0 0 32 32" fill="none" xmlns="http://www.w3.org/2000/svg">
<path d="M30.9378 14.2222L27.0741 4.74074H29.4444V2.37037H17.5926V0H15.2222V2.37037H3.37037V4.74074H5.74074L1.90074 14.2222H1V16.5926H1.35556C1.72533 17.773 2.47674 18.797 3.48889 19.5081C4.48835 20.2329 5.69134 20.6232 6.92593 20.6232C8.16051 20.6232 9.3635 20.2329 10.363 19.5081C11.376 18.7927 12.1322 17.7706 12.52 16.5926H12.8519V14.2222H11.7852L7.82667 4.74074H15.2222V23.7037H10.4815L9.55704 24.1304L4.8163 30.08L5.74074 32H27.0741L27.9985 30.08L23.2578 24.1304L22.3333 23.7037H17.5926V4.74074H25.0119L21.0533 14.2222H19.963V16.5926H20.3185C20.7062 17.767 21.4544 18.7892 22.4566 19.5137C23.4588 20.2383 24.664 20.6283 25.9007 20.6283C27.1375 20.6283 28.3427 20.2383 29.3449 19.5137C30.3471 18.7892 31.0953 17.767 31.483 16.5926H31.8148V14.2222H30.9378ZM8.63259 17.8015C8.10984 18.0908 7.52336 18.2456 6.92593 18.2519C6.33557 18.2488 5.75596 18.0937 5.24296 17.8015C4.71985 17.5147 4.27911 17.0985 3.96296 16.5926H9.88889C9.57541 17.0923 9.14401 17.5074 8.63259 17.8015V17.8015ZM9.22518 14.2222H4.48444L6.85481 8.53333L9.22518 14.2222ZM21.7644 26.0741L24.7037 29.6296H8.11111L11.0504 26.0741H21.7644ZM25.9837 8.58074L28.3541 14.2696H23.6133L25.9837 8.58074V8.58074ZM27.5956 17.8489C27.0773 18.1492 26.4879 18.3048 25.8889 18.2993C25.297 18.3077 24.7145 18.1518 24.2059 17.8489C23.682 17.5423 23.2423 17.1107 22.9259 16.5926H28.8519C28.558 17.12 28.123 17.555 27.5956 17.8489V17.8489Z" fill="#33408C"/>
</svg>
