<svg width="32" height="32" viewBox="0 0 32 32" fill="none" xmlns="http://www.w3.org/2000/svg">
<path fill-rule="evenodd" clip-rule="evenodd" d="M8.20002 1.60001C7.77567 1.60001 7.3687 1.76858 7.06864 2.06864C6.76858 2.3687 6.60001 2.77567 6.60001 3.20002V25.6002C6.60001 26.0245 6.76858 26.4315 7.06864 26.7315C7.3687 27.0316 7.77567 27.2002 8.20002 27.2002H17.0001V28.8002H8.20002C7.35132 28.8002 6.53738 28.463 5.93726 27.8629C5.33714 27.2628 5 26.4489 5 25.6002V3.20002C5 2.35132 5.33714 1.53738 5.93726 0.937264C6.53738 0.337144 7.35132 0 8.20002 0H24.2001C25.0488 0 25.8628 0.337144 26.4629 0.937264C27.063 1.53738 27.4001 2.35132 27.4001 3.20002V25.6002C27.4001 26.4489 27.063 27.2628 26.4629 27.8629C25.8628 28.463 25.0488 28.8002 24.2001 28.8002H21.8001V27.2002H24.2001C24.6245 27.2002 25.0314 27.0316 25.3315 26.7315C25.6316 26.4315 25.8001 26.0245 25.8001 25.6002V3.20002C25.8001 2.77567 25.6316 2.3687 25.3315 2.06864C25.0314 1.76858 24.6245 1.60001 24.2001 1.60001H8.20002Z" fill="#33408C"/>
<path fill-rule="evenodd" clip-rule="evenodd" d="M11.4004 5.60003C11.4004 5.38786 11.4847 5.18438 11.6347 5.03435C11.7848 4.88432 11.9883 4.80003 12.2004 4.80003H20.2005C20.4127 4.80003 20.6161 4.88432 20.7662 5.03435C20.9162 5.18438 21.0005 5.38786 21.0005 5.60003C21.0005 5.81221 20.9162 6.01569 20.7662 6.16572C20.6161 6.31575 20.4127 6.40004 20.2005 6.40004H12.2004C11.9883 6.40004 11.7848 6.31575 11.6347 6.16572C11.4847 6.01569 11.4004 5.81221 11.4004 5.60003ZM8.20041 10.4001C8.20041 10.1879 8.2847 9.9844 8.43473 9.83437C8.58476 9.68434 8.78824 9.60006 9.00042 9.60006H23.4005C23.6127 9.60006 23.8162 9.68434 23.9662 9.83437C24.1162 9.9844 24.2005 10.1879 24.2005 10.4001C24.2005 10.6122 24.1162 10.8157 23.9662 10.9658C23.8162 11.1158 23.6127 11.2001 23.4005 11.2001H9.00042C8.78824 11.2001 8.58476 11.1158 8.43473 10.9658C8.2847 10.8157 8.20041 10.6122 8.20041 10.4001ZM8.20041 13.6001C8.20041 13.3879 8.2847 13.1844 8.43473 13.0344C8.58476 12.8844 8.78824 12.8001 9.00042 12.8001H23.4005C23.6127 12.8001 23.8162 12.8844 23.9662 13.0344C24.1162 13.1844 24.2005 13.3879 24.2005 13.6001C24.2005 13.8123 24.1162 14.0157 23.9662 14.1658C23.8162 14.3158 23.6127 14.4001 23.4005 14.4001H9.00042C8.78824 14.4001 8.58476 14.3158 8.43473 14.1658C8.2847 14.0157 8.20041 13.8123 8.20041 13.6001ZM8.20041 16.8001C8.20041 16.5879 8.2847 16.3844 8.43473 16.2344C8.58476 16.0844 8.78824 16.0001 9.00042 16.0001H23.4005C23.6127 16.0001 23.8162 16.0844 23.9662 16.2344C24.1162 16.3844 24.2005 16.5879 24.2005 16.8001C24.2005 17.0123 24.1162 17.2158 23.9662 17.3658C23.8162 17.5158 23.6127 17.6001 23.4005 17.6001H9.00042C8.78824 17.6001 8.58476 17.5158 8.43473 17.3658C8.2847 17.2158 8.20041 17.0123 8.20041 16.8001ZM19.4005 24.8002C19.8248 24.8002 20.2318 24.6316 20.5319 24.3315C20.8319 24.0315 21.0005 23.6245 21.0005 23.2001C21.0005 22.7758 20.8319 22.3688 20.5319 22.0688C20.2318 21.7687 19.8248 21.6001 19.4005 21.6001C18.9761 21.6001 18.5692 21.7687 18.2691 22.0688C17.969 22.3688 17.8005 22.7758 17.8005 23.2001C17.8005 23.6245 17.969 24.0315 18.2691 24.3315C18.5692 24.6316 18.9761 24.8002 19.4005 24.8002ZM19.4005 26.4002C20.2492 26.4002 21.0631 26.063 21.6632 25.4629C22.2634 24.8628 22.6005 24.0488 22.6005 23.2001C22.6005 22.3514 22.2634 21.5375 21.6632 20.9374C21.0631 20.3373 20.2492 20.0001 19.4005 20.0001C18.5518 20.0001 17.7378 20.3373 17.1377 20.9374C16.5376 21.5375 16.2005 22.3514 16.2005 23.2001C16.2005 24.0488 16.5376 24.8628 17.1377 25.4629C17.7378 26.063 18.5518 26.4002 19.4005 26.4002Z" fill="#33408C"/>
<path fill-rule="evenodd" clip-rule="evenodd" d="M18.6001 24.8H17.0001V32L19.4001 30.8L21.8001 32V24.8H20.2001V29.4112L19.4001 29.0112L18.6001 29.4112V24.8Z" fill="#33408C"/>
</svg>
