<svg width="32" height="32" viewBox="0 0 32 32" fill="none" xmlns="http://www.w3.org/2000/svg">
<path d="M16.6528 2.2277C16.4635 2.08014 16.2304 2 15.9904 2C15.7504 2 15.5173 2.08014 15.328 2.2277L0 14.1797L1.32587 15.8565L3.2 14.3952V27.5994C3.20113 28.1649 3.42625 28.7069 3.82608 29.1067C4.22592 29.5065 4.76788 29.7316 5.33333 29.7328H26.6667C27.2321 29.7316 27.7741 29.5065 28.1739 29.1067C28.5738 28.7069 28.7989 28.1649 28.8 27.5994V14.4048L30.6741 15.8661L32 14.1893L16.6528 2.2277ZM18.1333 27.5994H13.8667V19.0661H18.1333V27.5994ZM20.2667 27.5994V19.0661C20.2661 18.5005 20.0412 17.9582 19.6412 17.5582C19.2413 17.1583 18.699 16.9333 18.1333 16.9328H13.8667C13.301 16.9333 12.7588 17.1583 12.3588 17.5582C11.9588 17.9582 11.7339 18.5005 11.7333 19.0661V27.5994H5.33333V12.7322L16 4.4229L26.6667 12.7429V27.5994H20.2667Z" fill="#33408C"/>
</svg>
